<?xml version="1.0" encoding="UTF-8"?>
<svg version="1.1" xmlns="http://www.w3.org/2000/svg" width="500" height="500">
<path d="M0 0 C3.31172207 0.8677908 6.4959547 2.00900236 9.70703125 3.19140625 C10.6495575 3.52822418 11.59208374 3.86504211 12.56317139 4.21206665 C15.65028115 5.31809677 18.73142883 6.43976875 21.8125 7.5625 C23.95337545 8.33527617 26.09457413 9.10715746 28.23608398 9.87817383 C31.53166418 11.06506671 34.82682431 12.25303137 38.12037659 13.44554138 C45.48244808 16.10839529 52.86553584 18.7027394 60.265625 21.2578125 C63.12065302 22.25056776 65.97515992 23.24480426 68.82943726 24.23971558 C70.63790478 24.8668645 72.4481346 25.4889566 74.26016235 26.10574341 C76.7841945 26.96620825 79.30066498 27.84610787 81.81640625 28.73046875 C82.54664001 28.97366852 83.27687378 29.21686829 84.02923584 29.46743774 C89.7538342 31.51342332 95.05369249 34.60892961 98.15626526 40.01457214 C100.18433996 44.78692039 100.15946748 49.88686808 100.1875 55 C100.20167969 56.175625 100.21585937 57.35125 100.23046875 58.5625 C99.95741936 62.63510106 99.55297714 66.62621253 96.375 69.4375 C90.30246934 70.87573095 83.9495113 68.53790978 78.26171875 66.47265625 C77.15372421 66.08180595 77.15372421 66.08180595 76.02334595 65.68305969 C73.57519909 64.81738579 71.13134962 63.94022501 68.6875 63.0625 C66.95556651 62.44609065 65.22338247 61.8303849 63.4909668 61.21533203 C60.70490678 60.22592444 57.91916869 59.23566921 55.13453674 58.24224854 C48.67317711 55.93920557 42.19987255 53.67289093 35.71824646 51.42753601 C31.05909934 49.81339527 26.40270943 48.1913823 21.74649048 46.56881714 C19.46323086 45.77504835 17.17886948 44.98444148 14.8934021 44.197052 C11.67169498 43.08600603 8.45462547 41.96239812 5.23828125 40.8359375 C3.79396225 40.34290886 3.79396225 40.34290886 2.32046509 39.83992004 C-8.48873869 36.02252263 -8.48873869 36.02252263 -11 31 C-11.29828882 26.54747364 -11.2780761 22.08633762 -11.3125 17.625 C-11.34150391 16.37976563 -11.37050781 15.13453125 -11.40039062 13.8515625 C-11.40876953 12.6553125 -11.41714844 11.4590625 -11.42578125 10.2265625 C-11.44036377 9.12908691 -11.45494629 8.03161133 -11.4699707 6.90087891 C-11 4 -11 4 -9.41088867 1.61083984 C-5.9914204 -0.67388437 -4.0786006 -0.47532466 0 0 Z " fill="#FAB624" transform="translate(61,192)"/>
<path d="M0 0 C0.67523712 0.23325485 1.35047424 0.4665097 2.0461731 0.70683289 C3.46418998 1.19825963 4.88092161 1.69340965 6.29638672 2.19213867 C8.4305742 2.94402636 10.56831264 3.68493994 12.70703125 4.42382812 C20.06905347 6.97977386 27.37423048 9.63925464 34.5703125 12.63671875 C34.31349182 14.51132202 34.31349182 14.51132202 33.5703125 16.63671875 C31.88169861 17.76528931 31.88169861 17.76528931 29.67944336 18.64306641 C28.45365067 19.13918427 28.45365067 19.13918427 27.20309448 19.64532471 C26.33427643 19.97248474 25.46545837 20.29964478 24.5703125 20.63671875 C23.31288742 21.11223175 23.31288742 21.11223175 22.03005981 21.59735107 C19.30324894 22.60211204 16.56625646 23.57275384 13.82421875 24.53515625 C12.81423325 24.89259918 11.80424774 25.25004211 10.76365662 25.61831665 C8.63381332 26.37127881 6.50335454 27.12250202 4.37231445 27.87207031 C1.17191538 28.99796246 -2.02649792 30.12934711 -5.22460938 31.26171875 C-10.33461903 33.06869184 -15.45094129 34.85686511 -20.57049561 36.63659668 C-23.30723665 37.59388644 -26.0369233 38.56928301 -28.76611328 39.54785156 C-30.373783 40.11201377 -31.98167854 40.67553303 -33.58984375 41.23828125 C-34.30353622 41.49966888 -35.0172287 41.76105652 -35.75254822 42.03036499 C-40.0179134 43.49935597 -43.08685549 43.98488725 -47.4296875 42.63671875 C-49.27539062 41.46435547 -49.27539062 41.46435547 -50.4296875 39.63671875 C-51.11092245 35.04313564 -50.93897359 30.40012168 -50.9296875 25.76171875 C-50.95804688 24.48167969 -50.98640625 23.20164062 -51.015625 21.8828125 C-51.01820312 20.64917969 -51.02078125 19.41554688 -51.0234375 18.14453125 C-51.03052734 17.0167627 -51.03761719 15.88899414 -51.04492188 14.72705078 C-50.22081133 10.58753045 -48.72580225 9.2209664 -45.4296875 6.63671875 C-42.23510742 5.13525391 -42.23510742 5.13525391 -38.66015625 3.92578125 C-38.02032303 3.70852386 -37.38048981 3.49126648 -36.7212677 3.26742554 C-35.37483592 2.81490802 -34.02585664 2.36990684 -32.67456055 1.93212891 C-30.6253637 1.26438303 -28.58957129 0.56380056 -26.55273438 -0.140625 C-25.23504714 -0.57884917 -23.91670589 -1.01511266 -22.59765625 -1.44921875 C-21.41453857 -1.84157715 -20.2314209 -2.23393555 -19.01245117 -2.63818359 C-12.17338411 -4.02230824 -6.4616421 -2.2504049 0 0 Z " fill="#FAB624" transform="translate(100.4296875,257.36328125)"/>
<path d="M0 0 C1.76462683 3.08809695 2 4.23312136 2 8 C1.01 8.495 1.01 8.495 0 9 C-0.103125 10.2375 -0.20625 11.475 -0.3125 12.75 C-0.67031634 16.07172836 -1.04338471 17.06179035 -3.0625 19.9375 C-6.93417223 22.65590816 -9.29853171 22.8458535 -14 23 C-14.66 22.67 -15.32 22.34 -16 22 C-15.67 22.66 -15.34 23.32 -15 24 C-11.73166399 25.07143798 -8.42683497 25.92728745 -5.1015625 26.8046875 C-1.76642243 28.09001856 -0.66341148 28.88912872 1 32 C1.53561062 36.20836916 1.46774118 38.25806572 -0.8125 41.875 C-4.42533572 45.38461184 -7.93651497 45.28090712 -12.71484375 45.21875 C-16.96563488 44.81183666 -19.85182958 43.10989807 -22.875 40.1875 C-24.38513316 37.25112997 -24.33354814 35.26877177 -24 32 C-23.33333333 30.33333333 -22.66666667 28.66666667 -22 27 C-21.96079185 25.00038436 -21.95556653 22.99950636 -22 21 C-21.67 20.34 -21.34 19.68 -21 19 C-21.33 18.34 -21.66 17.68 -22 17 C-22.6847676 10.03819604 -22.6847676 10.03819604 -20.0625 6.0625 C-16.02362919 3.34244415 -12.75817073 3.23358293 -8 3 C-4.41963132 2.45516129 -3.08512161 2.05674774 0 0 Z M-14 9 C-14.66 9.66 -15.32 10.32 -16 11 C-15.67958603 13.60280568 -15.67958603 13.60280568 -15 16 C-12.09926819 16.67801034 -12.09926819 16.67801034 -9 17 C-6.71271266 15.16116119 -6.71271266 15.16116119 -6.875 12.375 C-6.91625 11.59125 -6.9575 10.8075 -7 10 C-10.40320934 9.32326553 -10.40320934 9.32326553 -14 9 Z M-16 31 C-17.26472065 32.05429686 -17.26472065 32.05429686 -17.25 34.4375 C-17.1675 35.283125 -17.085 36.12875 -17 37 C-13.3558226 39.4294516 -11.28758728 39.16179575 -7 39 C-6.34 37.68 -5.68 36.36 -5 35 C-6.39886171 32.98913629 -7.55553544 32.1044224 -9.9453125 31.54296875 C-11.95358159 31.27304011 -13.97787575 31.13045963 -16 31 Z " fill="#DBDBDB" transform="translate(283,215)"/>
<path d="M0 0 C0.33 1.65 0.66 3.3 1 5 C0.01 5.33 -0.98 5.66 -2 6 C-1.896875 7.19625 -1.79375 8.3925 -1.6875 9.625 C-1.70647377 13.18574481 -2.09659455 14.16602189 -4 17.4375 C-7.91998697 20.78582221 -9.91381121 20.91661986 -15 21 C-15.66 20.67 -16.32 20.34 -17 20 C-17 20.99 -17 21.98 -17 23 C-16.26394531 23.09796875 -15.52789062 23.1959375 -14.76953125 23.296875 C-4.43260979 24.88086825 -4.43260979 24.88086825 -1 29 C0.30097663 32.74030781 0.173112 34.49989866 -1.125 38.25 C-3.33375184 41.4895027 -4.19902239 42.17370052 -8 43 C-13.63188032 43.57255715 -18.28878037 43.47732878 -23 40 C-25 36.625 -25 36.625 -26 33 C-25.25 30.1875 -25.25 30.1875 -24 28 C-22.74489441 26.01156774 -22.74489441 26.01156774 -23.5 23.6875 C-24.04276341 20.77014668 -23.61969455 18.86608732 -23 16 C-23.33 15.34 -23.66 14.68 -24 14 C-24.40203796 11.05172163 -24.54942715 8.91854037 -22.98828125 6.30859375 C-20.80985617 3.59373967 -19.33499379 2.1116646 -16 1 C-13.74370348 0.9709133 -11.50809921 1.06480122 -9.25390625 1.16015625 C-6.94449915 1.1428685 -6.94449915 1.1428685 -4.90234375 -0.06640625 C-3 -1 -3 -1 0 0 Z M-17 8 C-17.16687448 10.41645782 -17.16687448 10.41645782 -17 13 C-16.34 13.66 -15.68 14.32 -15 15 C-11.90073181 14.67801034 -11.90073181 14.67801034 -9 14 C-8.32041397 11.60280568 -8.32041397 11.60280568 -8 9 C-9.82537104 6.73980102 -9.82537104 6.73980102 -12.5 6.8125 C-14.99790956 6.84101023 -14.99790956 6.84101023 -17 8 Z M-17 29 C-17.66 29.66 -18.32 30.32 -19 31 C-18.83492354 33.57540213 -18.83492354 33.57540213 -18 36 C-15.01405576 37.49297212 -12.29146376 37.11755228 -9 37 C-8.34 36.67 -7.68 36.34 -7 36 C-7.10613836 33.54775306 -7.10613836 33.54775306 -8 31 C-11.27728249 29.13992075 -13.1659754 29 -17 29 Z " fill="#DBDBDB" transform="translate(257,217)"/>
<path d="M0 0 C1.4540625 0.0309375 1.4540625 0.0309375 2.9375 0.0625 C3.08055665 4.28000788 3.22295537 8.49753731 3.36474609 12.71508789 C3.41306798 14.1496643 3.46156923 15.58423468 3.51025391 17.01879883 C3.58022531 19.08152734 3.64955038 21.14427672 3.71875 23.20703125 C3.76064453 24.44815674 3.80253906 25.68928223 3.84570312 26.96801758 C3.90594711 28.99884879 3.9375 31.03077543 3.9375 33.0625 C2.125 34.8125 2.125 34.8125 -0.0625 36.0625 C-1.5475 35.5675 -1.5475 35.5675 -3.0625 35.0625 C-4.0525 35.5575 -4.0525 35.5575 -5.0625 36.0625 C-9.9580438 36.1971515 -13.20962481 35.75546109 -17.0625 32.625 C-20.53183737 28.17991149 -20.72266424 24.5855642 -20.0625 19.0625 C-17.69440613 14.14415118 -15.18950886 11.90822319 -10.0625 10.0625 C-6.6875 9.875 -6.6875 9.875 -4.0625 10.0625 C-4.07410156 9.42441406 -4.08570313 8.78632813 -4.09765625 8.12890625 C-4.10667969 7.30261719 -4.11570312 6.47632813 -4.125 5.625 C-4.13660156 4.80128906 -4.14820313 3.97757813 -4.16015625 3.12890625 C-4.00103255 -0.23815127 -3.43619093 0.07012635 0 0 Z M-10.75 17.125 C-13.29688645 18.9186517 -13.29688645 18.9186517 -14.0625 22 C-14.28578979 25.03212044 -14.28578979 25.03212044 -12.9375 27.375 C-10.64300414 29.44004628 -9.11564441 29.82764274 -6.0625 30.0625 C-5.4025 29.7325 -4.7425 29.4025 -4.0625 29.0625 C-4.0625 25.1025 -4.0625 21.1425 -4.0625 17.0625 C-7.89071589 15.69303303 -7.89071589 15.69303303 -10.75 17.125 Z " fill="#D7D7D7" transform="translate(405.0625,207.9375)"/>
<path d="M0 0 C2.64 0 5.28 0 8 0 C8.23187012 0.6705542 8.46374023 1.3411084 8.70263672 2.03198242 C9.75885611 5.08425061 10.81690976 8.13587988 11.875 11.1875 C12.23980469 12.24259766 12.60460937 13.29769531 12.98046875 14.38476562 C13.33496094 15.40634766 13.68945312 16.42792969 14.0546875 17.48046875 C14.37937012 18.41785889 14.70405273 19.35524902 15.03857422 20.32104492 C15.68358453 22.11832734 16.37909168 23.89821788 17.12158203 25.6574707 C18 28 18 28 18 31 C15.69 31 13.38 31 11 31 C10.34 29.02 9.68 27.04 9 25 C4.05 25.495 4.05 25.495 -1 26 C-1.66 27.98 -2.32 29.96 -3 32 C-5.31 31.67 -7.62 31.34 -10 31 C-9.39983288 26.75734394 -8.40522383 22.96638623 -6.93359375 18.9453125 C-6.53076172 17.83671875 -6.12792969 16.728125 -5.71289062 15.5859375 C-5.29201172 14.44382813 -4.87113281 13.30171875 -4.4375 12.125 C-4.01275391 10.9596875 -3.58800781 9.794375 -3.15039062 8.59375 C-2.1048911 5.72743669 -1.05462612 2.86296514 0 0 Z M3 10 C2.34 12.64 1.68 15.28 1 18 C2.65 18 4.3 18 6 18 C5.55296014 13.52116304 5.55296014 13.52116304 3 10 Z " fill="#DEDEDE" transform="translate(185,212)"/>
<path d="M0 0 C2.63978907 2.12649675 3.90317388 3.69353425 5.25 6.8125 C5.25 9.1225 5.25 11.4325 5.25 13.8125 C-0.36 13.8125 -5.97 13.8125 -11.75 13.8125 C-11.75 14.4725 -11.75 15.1325 -11.75 15.8125 C-8.46480525 16.90756492 -6.01336585 16.91210608 -2.5625 16.875 C-1.47582031 16.86597656 -0.38914062 16.85695312 0.73046875 16.84765625 C1.56191406 16.83605469 2.39335937 16.82445312 3.25 16.8125 C3.25 18.7925 3.25 20.7725 3.25 22.8125 C-0.89327024 24.8213583 -4.16538356 25.21465934 -8.75 24.8125 C-13.37504462 23.08944416 -16.34171337 21.16594121 -18.75 16.8125 C-19.4902381 12.67546837 -19.73311313 8.71266727 -17.76171875 4.90234375 C-13.01534596 -1.07837986 -7.25329932 -3.13210652 0 0 Z M-9.75 4.8125 C-10.41 6.1325 -11.07 7.4525 -11.75 8.8125 C-8.45 8.8125 -5.15 8.8125 -1.75 8.8125 C-2.41 7.4925 -3.07 6.1725 -3.75 4.8125 C-5.73 4.8125 -7.71 4.8125 -9.75 4.8125 Z " fill="#DBDBDB" transform="translate(431.75,219.1875)"/>
<path d="M0 0 C0 2.64 0 5.28 0 8 C-1.0209375 7.505 -1.0209375 7.505 -2.0625 7 C-6.37656249 5.53138298 -10.11842314 5.20775711 -14.375 7 C-16.8208497 10.01027655 -16.97081809 13.25012484 -17 17 C-16.64933615 19.85622487 -16.64933615 19.85622487 -16 22 C-13.22947819 22.92350727 -11.43311242 23.16329585 -8.5625 23.1875 C-7.41974609 23.20876953 -7.41974609 23.20876953 -6.25390625 23.23046875 C-3.76652685 22.97612666 -2.15191894 22.24017196 0 21 C0.3125 24.3125 0.3125 24.3125 0 28 C-2.84617466 30.84617466 -5.56038213 31.21127036 -9.4375 31.375 C-14.94928921 31.16441669 -18.4829037 29.5991015 -22.3125 25.5625 C-25.4715834 20.76537336 -25.54625134 15.60883074 -25 10 C-23.42278746 5.82038678 -21.53865758 2.75228923 -18 0 C-12.27457929 -2.35752617 -5.67702315 -2.83851157 0 0 Z " fill="#DBDBDB" transform="translate(354,213)"/>
<path d="M0 0 C3.17204254 2.95771534 3.08858537 6.2671294 3.375 10.4375 C3.40207031 11.64535156 3.42914063 12.85320312 3.45703125 14.09765625 C3.54259424 16.75644687 3.77803542 18.85843764 4.5625 21.375 C2.1875 22.9375 2.1875 22.9375 -0.4375 24.375 C-1.0975 24.045 -1.7575 23.715 -2.4375 23.375 C-3.85986566 23.53999442 -5.27666645 23.75526357 -6.6875 24 C-11.11480324 24.56412412 -13.65877304 23.9256407 -17.4375 21.375 C-18.85791821 18.53416359 -18.75202272 16.52022722 -18.4375 13.375 C-15.35988999 8.47880226 -9.72385876 7.70667816 -4.4375 6.375 C-5.5926251 4.99322838 -5.5926251 4.99322838 -8.75 5.25 C-11.58398763 5.34606738 -13.77345099 5.52250432 -16.4375 6.375 C-16.7675 4.395 -17.0975 2.415 -17.4375 0.375 C-11.12821845 -2.14871262 -6.19806618 -2.92999492 0 0 Z M-11.4375 14.375 C-11.1075 15.695 -10.7775 17.015 -10.4375 18.375 C-8.43795254 18.41754356 -6.43708364 18.41580783 -4.4375 18.375 C-3.14116379 17.30854885 -3.14116379 17.30854885 -3.375 14.8125 C-3.395625 14.008125 -3.41625 13.20375 -3.4375 12.375 C-6.64145416 12.375 -8.53149739 13.11835022 -11.4375 14.375 Z " fill="#DBDBDB" transform="translate(306.4375,219.625)"/>
<path d="M0 0 C3.42679683 2.33645239 4.41872531 3.95513564 5.75 7.875 C6.46354838 12.28842886 6.10922726 15.14272904 4.125 19.1875 C1.3922424 22.27983097 -0.31317532 23.61224492 -4.25 24.875 C-9.24160167 25.16602978 -12.32467347 24.62682781 -16.25 21.4375 C-19.4262058 17.36798632 -19.70133335 14.57375292 -19.671875 9.4921875 C-18.98288992 5.21792823 -16.58018946 2.5245668 -13.25 -0.125 C-8.53428001 -1.69690666 -4.70181501 -1.62755135 0 0 Z M-12.25 6.875 C-13.42761741 10.19916555 -13.42761741 10.19916555 -13.25 13.875 C-11.2905988 17.0014113 -11.2905988 17.0014113 -8.25 18.875 C-4.80383944 18.79485673 -3.6943896 18.3193896 -1.25 15.875 C-0.97079419 12.943339 -0.77286613 10.72034707 -1.25 7.875 C-2.86548201 5.74605376 -2.86548201 5.74605376 -5.25 4.875 C-9.29622502 4.50519987 -9.29622502 4.50519987 -12.25 6.875 Z " fill="#DCDCDC" transform="translate(376.25,219.125)"/>
<path d="M0 0 C2.98953396 2.08561882 4.73739726 3.73462606 5.49389648 7.37988281 C5.71629261 10.19944786 5.79540573 12.98434718 5.8125 15.8125 C5.83763672 16.79154297 5.86277344 17.77058594 5.88867188 18.77929688 C5.94738663 21.18660197 5.9837798 23.59209562 6 26 C3.69 26 1.38 26 -1 26 C-1.06058594 24.79601562 -1.12117187 23.59203125 -1.18359375 22.3515625 C-1.26799732 20.77602923 -1.35264541 19.20050904 -1.4375 17.625 C-1.47681641 16.8309375 -1.51613281 16.036875 -1.55664062 15.21875 C-1.68893404 10.97398779 -1.68893404 10.97398779 -3 7 C-4.65 7.33 -6.3 7.66 -8 8 C-8.33 13.61 -8.66 19.22 -9 25 C-11.31 25 -13.62 25 -16 25 C-16 17.08 -16 9.16 -16 1 C-13.36 1 -10.72 1 -8 1 C-5.11138291 -0.44430855 -3.20352299 -0.37688506 0 0 Z " fill="#DCDCDC" transform="translate(222,218)"/>
<path d="M0 0 C2.64590014 -0.02684679 5.29153096 -0.04676357 7.9375 -0.0625 C8.69224609 -0.07087891 9.44699219 -0.07925781 10.22460938 -0.08789062 C12.14994313 -0.09652441 14.07535581 -0.05224333 16 0 C17 1 17 1 17.09765625 3.50390625 C17.08605469 4.51324219 17.07445312 5.52257812 17.0625 6.5625 C17.05347656 7.57441406 17.04445313 8.58632813 17.03515625 9.62890625 C17.02355469 10.41136719 17.01195312 11.19382812 17 12 C16.01 12 15.02 12 14 12 C14 9.03 14 6.06 14 3 C13.01 3.33 12.02 3.66 11 4 C10.67 6.64 10.34 9.28 10 12 C9.01 12 8.02 12 7 12 C7 9.03 7 6.06 7 3 C6.01 3 5.02 3 4 3 C4 5.97 4 8.94 4 12 C2.68 12 1.36 12 0 12 C0 8.04 0 4.08 0 0 Z " fill="#C4C4C4" transform="translate(267,272)"/>
<path d="M0 0 C0.99 0.66 1.98 1.32 3 2 C2.67 2.99 2.34 3.98 2 5 C-0.31 4.34 -2.62 3.68 -5 3 C-5 3.99 -5 4.98 -5 6 C-4.05125 6.12375 -3.1025 6.2475 -2.125 6.375 C1 7 1 7 3 9 C3.3125 12 3.3125 12 3 15 C0 17 0 17 -3.5625 16.8125 C-7 16 -7 16 -9 13 C-5.52176885 11.84058962 -3.54104422 12.29179116 0 13 C-0.92966491 10.5736276 -0.92966491 10.5736276 -4.5 9.6875 C-8 8 -8 8 -9.125 5.5 C-9 3 -9 3 -7.9375 1.1875 C-5.17428518 -0.50608328 -3.18170002 -0.33142708 0 0 Z " fill="#B9B9B9" transform="translate(249,268)"/>
<path d="M0 0 C0.99 0 1.98 0 3 0 C3 5.61 3 11.22 3 17 C-5 18 -5 18 -7 17 C-8.53752647 13.92494706 -8.30156712 11.37755173 -8 8 C-7.34 7.01 -6.68 6.02 -6 5 C-2.875 4.8125 -2.875 4.8125 0 5 C0 3.35 0 1.7 0 0 Z M-4 8 C-5.00217064 11.58327753 -5.00217064 11.58327753 -4 15 C-2.68 14.67 -1.36 14.34 0 14 C0 12.02 0 10.04 0 8 C-1.32 8 -2.64 8 -4 8 Z " fill="#EBEBEB" transform="translate(340,267)"/>
<path d="M0 0 C1.9375 2 1.9375 2 3 4 C-0.09538161 4.99494409 -1.89827875 4.85564724 -5 4 C-6.41577477 5.18424326 -6.41577477 5.18424326 -6.0625 8.5625 C-6.041875 9.696875 -6.02125 10.83125 -6 12 C-2.71023192 13.09658936 -1.28696233 12.79953138 2 12 C2 12.99 2 13.98 2 15 C-1 17 -1 17 -4.5 16.9375 C-8 16 -8 16 -10 13.9375 C-11.41959673 9.76743461 -10.97304932 7.30921841 -10 3 C-7.73085238 -1.03404021 -4.2480466 -0.53100583 0 0 Z " fill="#B2B2B2" transform="translate(315,268)"/>
<path d="M0 0 C3.5 -0.375 3.5 -0.375 7 0 C9 3 9 3 9 7 C6.69 7.33 4.38 7.66 2 8 C4.33317216 8.77772405 6.61435923 9.42415568 9 10 C7.875 11.5625 7.875 11.5625 6 13 C2.35265021 12.77669287 0.61627165 12.61627165 -2 10 C-2.31537716 5.66356399 -2.44897847 3.67346771 0 0 Z M3 2 C2.67 2.66 2.34 3.32 2 4 C2.99 3.67 3.98 3.34 5 3 C4.34 2.67 3.68 2.34 3 2 Z " fill="#A6A6A6" transform="translate(347,272)"/>
<path d="M0 0 C6.15234375 -0.09765625 6.15234375 -0.09765625 8 0 C9 1 9 1 9.09765625 3.50390625 C9.08605469 4.51324219 9.07445312 5.52257812 9.0625 6.5625 C9.05347656 7.57441406 9.04445312 8.58632813 9.03515625 9.62890625 C9.02355469 10.41136719 9.01195312 11.19382812 9 12 C2.9453125 12.9765625 2.9453125 12.9765625 1 13 C-1 11 -1 11 -1.125 8.375 C-1.08375 7.59125 -1.0425 6.8075 -1 6 C0.32 5.34 1.64 4.68 3 4 C1.68 3.67 0.36 3.34 -1 3 C-0.67 2.01 -0.34 1.02 0 0 Z M3 7 C2.67 7.99 2.34 8.98 2 10 C3.32 9.67 4.64 9.34 6 9 C6 8.34 6 7.68 6 7 C5.01 7 4.02 7 3 7 Z " fill="#DCDCDC" transform="translate(201,272)"/>
<path d="M0 0 C3 0.25 3 0.25 5 2.25 C5.125 4.875 5.125 4.875 5 7.25 C2.69 7.25 0.38 7.25 -2 7.25 C-1.67 7.91 -1.34 8.57 -1 9.25 C0.65 9.25 2.3 9.25 4 9.25 C4 10.24 4 11.23 4 12.25 C1.25 13 1.25 13 -2 13.25 C-4.4375 11.75 -4.4375 11.75 -6 9.25 C-5.69740634 0.47478386 -5.69740634 0.47478386 0 0 Z M-1 2.25 C-1 3.24 -1 4.23 -1 5.25 C-0.01 5.25 0.98 5.25 2 5.25 C2 4.59 2 3.93 2 3.25 C1.01 2.92 0.02 2.59 -1 2.25 Z " fill="#BFBFBF" transform="translate(292,271.75)"/>
<path d="M0 0 C3.4375 -0.5 3.4375 -0.5 7 0 C9.0625 2.0625 9.0625 2.0625 10 5 C9.1875 8.8125 9.1875 8.8125 8 12 C2.74509804 13.31372549 2.74509804 13.31372549 -0.375 12 C-2 10 -2 10 -2.375 6.5 C-2 3 -2 3 0 0 Z M2 3 C0.99782936 6.58327753 0.99782936 6.58327753 2 10 C3.32 9.67 4.64 9.34 6 9 C6 7.02 6 5.04 6 3 C4.68 3 3.36 3 2 3 Z " fill="#B2B2B2" transform="translate(321,272)"/>
<path d="M0 0 C2.9375 0.4375 2.9375 0.4375 4.9375 2.4375 C5.0625 5.0625 5.0625 5.0625 4.9375 7.4375 C2.6275 7.4375 0.3175 7.4375 -2.0625 7.4375 C-1.7325 8.0975 -1.4025 8.7575 -1.0625 9.4375 C0.9175 9.4375 2.8975 9.4375 4.9375 9.4375 C4.6075 10.4275 4.2775 11.4175 3.9375 12.4375 C1.125 13.0625 1.125 13.0625 -2.0625 13.4375 C-5.0625 11.4375 -5.0625 11.4375 -5.9375 8.625 C-6.13063009 3.70018259 -5.15769137 0.73681305 0 0 Z M-2.0625 3.4375 C-1.7325 4.0975 -1.4025 4.7575 -1.0625 5.4375 C-0.0725 5.4375 0.9175 5.4375 1.9375 5.4375 C1.6075 4.4475 1.2775 3.4575 0.9375 2.4375 C-0.2861068 2.3629644 -0.2861068 2.3629644 -2.0625 3.4375 Z " fill="#BFBFBF" transform="translate(193.0625,271.5625)"/>
<path d="M0 0 C3.5 0.25 3.5 0.25 5.5 2.25 C6.18246445 9.41587678 6.18246445 9.41587678 3.8125 12.3125 C0.8979332 13.49408113 -0.54965818 13.25932746 -3.5 12.25 C-5.5 10.25 -5.5 10.25 -5.765625 8.375 C-5.76046875 7.67375 -5.7553125 6.9725 -5.75 6.25 C-5.75515625 5.54875 -5.7603125 4.8475 -5.765625 4.125 C-5.23295792 0.36499707 -3.52956633 0.25211188 0 0 Z M-1.5 3.25 C-2.79633621 4.31645115 -2.79633621 4.31645115 -2.5625 6.8125 C-2.541875 7.616875 -2.52125 8.42125 -2.5 9.25 C-0.55396726 9.84070014 -0.55396726 9.84070014 1.5 10.25 C2.79633621 9.18354885 2.79633621 9.18354885 2.5625 6.6875 C2.541875 5.883125 2.52125 5.07875 2.5 4.25 C0.55396726 3.65929986 0.55396726 3.65929986 -1.5 3.25 Z " fill="#ADADAD" transform="translate(259.5,271.75)"/>
<path d="M0 0 C6.93359375 -0.09765625 6.93359375 -0.09765625 9 0 C10 1 10 1 10.09765625 3.50390625 C10.08605469 4.51324219 10.07445312 5.52257812 10.0625 6.5625 C10.05347656 7.57441406 10.04445312 8.58632813 10.03515625 9.62890625 C10.02355469 10.41136719 10.01195312 11.19382812 10 12 C9.01 12 8.02 12 7 12 C7 9.03 7 6.06 7 3 C6.01 3.33 5.02 3.66 4 4 C3.67 6.64 3.34 9.28 3 12 C2.01 12 1.02 12 0 12 C0 8.04 0 4.08 0 0 Z " fill="#CDCDCD" transform="translate(222,272)"/>
<path d="M0 0 C0.99 0 1.98 0 3 0 C3 4.29 3 8.58 3 13 C5.31 13 7.62 13 10 13 C10 13.99 10 14.98 10 16 C6.7 16 3.4 16 0 16 C0 10.72 0 5.44 0 0 Z " fill="#D0D0D0" transform="translate(177,268)"/>
<path d="M0 0 C-4.05405667 1.43209819 -8.1108693 2.8560059 -12.17041016 4.27246094 C-13.55042467 4.7552554 -14.92966736 5.24026201 -16.30810547 5.72753906 C-18.29194555 6.428391 -20.27844401 7.1211866 -22.265625 7.8125 C-23.45961914 8.23144531 -24.65361328 8.65039062 -25.88378906 9.08203125 C-29 10 -29 10 -33 10 C-33 9.34 -33 8.68 -33 8 C-27.555 7.01 -27.555 7.01 -22 6 C-22 5.34 -22 4.68 -22 4 C-21.45472656 3.89042969 -20.90945312 3.78085937 -20.34765625 3.66796875 C-15.40472428 2.62868562 -10.75977022 1.30111387 -6.04296875 -0.51171875 C-3.66087094 -1.08105379 -2.32299886 -0.65821835 0 0 Z " fill="#B0842B" transform="translate(88,291)"/>
<path d="M0 0 C0.99 0.66 1.98 1.32 3 2 C2.67 2.99 2.34 3.98 2 5 C-0.31 4.34 -2.62 3.68 -5 3 C-5 3.99 -5 4.98 -5 6 C-4.01 6.33 -3.02 6.66 -2 7 C-2.66 7 -3.32 7 -4 7 C-4 7.66 -4 8.32 -4 9 C-5.32 8.67 -6.64 8.34 -8 8 C-8.6875 5.6875 -8.6875 5.6875 -9 3 C-6.82655578 -0.70764013 -3.98186313 -0.41477741 0 0 Z " fill="#C4C4C4" transform="translate(249,268)"/>
<path d="M0 0 C11.52164009 0.77904328 11.52164009 0.77904328 17 3 C17 3.66 17 4.32 17 5 C19.97 5.66 22.94 6.32 26 7 C25.67 7.66 25.34 8.32 25 9 C16.45115106 6.85406445 8.25949525 4.0505873 0 1 C0 0.67 0 0.34 0 0 Z " fill="#BC8E2E" transform="translate(90,240)"/>
<path d="M0 0 C2.31 0.33 4.62 0.66 7 1 C6.34 1.66 5.68 2.32 5 3 C4.53993654 5.20250992 4.53993654 5.20250992 4.375 7.625 C4.30023438 8.44226563 4.22546875 9.25953125 4.1484375 10.1015625 C4.09945313 10.72804688 4.05046875 11.35453125 4 12 C2.68 12 1.36 12 0 12 C0 8.04 0 4.08 0 0 Z " fill="#ABABAB" transform="translate(267,272)"/>
<path d="M0 0 C2.64 0 5.28 0 8 0 C7.67 0.99 7.34 1.98 7 3 C6.01 3.33 5.02 3.66 4 4 C3.67 6.64 3.34 9.28 3 12 C2.01 12 1.02 12 0 12 C0 8.04 0 4.08 0 0 Z " fill="#C6C6C6" transform="translate(213,272)"/>
<path d="M0 0 C0.99 0 1.98 0 3 0 C3 5.61 3 11.22 3 17 C2.67 17 2.34 17 2 17 C1.67 13.37 1.34 9.74 1 6 C0.34 6.66 -0.32 7.32 -1 8 C-1.99 8 -2.98 8 -4 8 C-4.33 8.66 -4.66 9.32 -5 10 C-5.33 9.67 -5.66 9.34 -6 9 C-6.33 10.98 -6.66 12.96 -7 15 C-7.33 15 -7.66 15 -8 15 C-8.25 8.375 -8.25 8.375 -6 5 C-2.875 4.8125 -2.875 4.8125 0 5 C0 3.35 0 1.7 0 0 Z " fill="#A3A3A3" transform="translate(340,267)"/>
<path d="M0 0 C3.5625 0.375 3.5625 0.375 5.5 2.375 C5.850625 3.035 6.20125 3.695 6.5625 4.375 C4.25357126 5.11715567 2.97184909 5.50704809 0.625 4.75 C-1.63669815 4.12063063 -1.63669815 4.12063063 -4.1875 5.8125 C-4.93 6.328125 -5.6725 6.84375 -6.4375 7.375 C-5.67134292 2.52267185 -5.28909383 0.57699205 0 0 Z " fill="#D5D5D5" transform="translate(311.4375,267.625)"/>
<path d="M0 0 C0.33 0.99 0.66 1.98 1 3 C2.32 2.67 3.64 2.34 5 2 C5.33 3.65 5.66 5.3 6 7 C8.97 7.495 8.97 7.495 12 8 C12.33 8.99 12.66 9.98 13 11 C3.93842129 8.87295004 3.93842129 8.87295004 0.3125 5.5 C-0.3371875 4.2625 -0.3371875 4.2625 -1 3 C-0.67 2.01 -0.34 1.02 0 0 Z " fill="#CF9B2E" transform="translate(51,220)"/>
<path d="M0 0 C0.33 0.66 0.66 1.32 1 2 C3.02463255 2.65213292 3.02463255 2.65213292 5 3 C3.68 3 2.36 3 1 3 C1.99 4.485 1.99 4.485 3 6 C5.58380177 6.25030977 5.58380177 6.25030977 8 6 C8 6.99 8 7.98 8 9 C5.1875 9.625 5.1875 9.625 2 10 C1.01 9.34 0.02 8.68 -1 8 C-1.25 4.4375 -1.25 4.4375 -1 1 C-0.67 0.67 -0.34 0.34 0 0 Z " fill="#C7C7C7" transform="translate(347,275)"/>
<path d="M0 0 C0.66 0.33 1.32 0.66 2 1 C2.29296875 7.0546875 2.29296875 7.0546875 2 9 C-1 11 -1 11 -3.625 10.6875 C-6 10 -6 10 -7 9 C-7.04092937 6.66702567 -7.04241723 4.33294775 -7 2 C-6.7525 2.639375 -6.505 3.27875 -6.25 3.9375 C-5.18437567 6.18741541 -5.18437567 6.18741541 -2.875 6.75 C-2.25625 6.8325 -1.6375 6.915 -1 7 C-0.67 4.69 -0.34 2.38 0 0 Z " fill="#DADADA" transform="translate(262,274)"/>
<path d="M0 0 C6.15234375 -0.09765625 6.15234375 -0.09765625 8 0 C9 1 9 1 9.09765625 3.50390625 C9.08605469 4.51324219 9.07445312 5.52257812 9.0625 6.5625 C9.05347656 7.57441406 9.04445312 8.58632813 9.03515625 9.62890625 C9.02355469 10.41136719 9.01195312 11.19382812 9 12 C8.67 12 8.34 12 8 12 C7.67 9.69 7.34 7.38 7 5 C6.13375 4.7834375 6.13375 4.7834375 5.25 4.5625 C3.16666667 4.04166667 1.08333333 3.52083333 -1 3 C-0.67 2.01 -0.34 1.02 0 0 Z " fill="#AEAEAE" transform="translate(201,272)"/>
<path d="M0 0 C-0.33 0.99 -0.66 1.98 -1 3 C-4.73437848 3.87867729 -8.16774573 4.08912219 -12 4 C-12 4.66 -12 5.32 -12 6 C-13.65 5.67 -15.3 5.34 -17 5 C-11.65467807 1.43645204 -6.50060481 -0.48754536 0 0 Z " fill="#CE9D2C" transform="translate(81,257)"/>
<path d="M0 0 C6.66500865 -0.59244521 11.86952975 1.51677155 18 4 C18 4.33 18 4.66 18 5 C15.69 5 13.38 5 11 5 C10.67 5.99 10.34 6.98 10 8 C9.34 8 8.68 8 8 8 C8.33 6.35 8.66 4.7 9 3 C4.545 2.01 4.545 2.01 0 1 C0 0.67 0 0.34 0 0 Z " fill="#D09A2D" transform="translate(54,192)"/>
<path d="M0 0 C5.445 1.485 5.445 1.485 11 3 C11 3.66 11 4.32 11 5 C9.02 5 7.04 5 5 5 C5 5.66 5 6.32 5 7 C2.525 6.01 2.525 6.01 0 5 C0 3.35 0 1.7 0 0 Z " fill="#FCB72D" transform="translate(104,208)"/>
<path d="M0 0 C1.66611905 -0.042721 3.33382885 -0.04063832 5 0 C6 1 6 1 6.09765625 3.50390625 C6.08605469 4.51324219 6.07445312 5.52257812 6.0625 6.5625 C6.05347656 7.57441406 6.04445313 8.58632813 6.03515625 9.62890625 C6.02355469 10.41136719 6.01195312 11.19382812 6 12 C5.01 12 4.02 12 3 12 C3 8.7 3 5.4 3 2 C2.01 2 1.02 2 0 2 C0 1.34 0 0.68 0 0 Z " fill="#CFCFCF" transform="translate(278,272)"/>
<path d="M0 0 C0 0.66 0 1.32 0 2 C-1.98 2.33 -3.96 2.66 -6 3 C-6 3.66 -6 4.32 -6 5 C-6.66 5 -7.32 5 -8 5 C-8.12375 5.804375 -8.2475 6.60875 -8.375 7.4375 C-8.58125 8.283125 -8.7875 9.12875 -9 10 C-9.99 10.495 -9.99 10.495 -11 11 C-11.8125 8.8125 -11.8125 8.8125 -12 6 C-8.2732086 1.44503273 -5.92164687 0 0 0 Z " fill="#C59A32" transform="translate(62,263)"/>
<path d="M0 0 C0.33 0 0.66 0 1 0 C1.33 2.31 1.66 4.62 2 7 C3.65 7.33 5.3 7.66 7 8 C6.34 8.66 5.68 9.32 5 10 C0.44444444 9.44444444 0.44444444 9.44444444 -1 8 C-1.125 4.5 -1.125 4.5 -1 1 C-0.67 0.67 -0.34 0.34 0 0 Z " fill="#CECECE" transform="translate(334,275)"/>
<path d="M0 0 C0.33 0 0.66 0 1 0 C1.01981934 0.68102783 1.03963867 1.36205566 1.06005859 2.0637207 C1.15526983 5.14703917 1.26496466 8.22967649 1.375 11.3125 C1.4059375 12.38435547 1.436875 13.45621094 1.46875 14.56054688 C1.50742187 15.58857422 1.54609375 16.61660156 1.5859375 17.67578125 C1.6173584 18.62364502 1.6487793 19.57150879 1.68115234 20.5480957 C1.8489051 23.2530269 1.8489051 23.2530269 4 26 C3.01 26 2.02 26 1 26 C0 25 0 25 -0.11352539 22.59155273 C-0.10828857 21.54942627 -0.10305176 20.5072998 -0.09765625 19.43359375 C-0.09443359 18.30888672 -0.09121094 17.18417969 -0.08789062 16.02539062 C-0.07951172 14.84138672 -0.07113281 13.65738281 -0.0625 12.4375 C-0.05798828 11.24962891 -0.05347656 10.06175781 -0.04882812 8.83789062 C-0.03699675 5.89187774 -0.02051287 2.94596319 0 0 Z " fill="#E4B046" transform="translate(50,272)"/>
<path d="M0 0 C3.53586014 3.17320782 5.58578031 5.16743695 6 10 C2.58119536 8.86039845 1.20034214 7.82901133 -1 5 C-0.75 2.25 -0.75 2.25 0 0 Z " fill="#D7A12D" transform="translate(154,227)"/>
<path d="M0 0 C6.43681228 0.51085812 11.95942424 1.72942897 18 4 C16.453125 5.1484375 16.453125 5.1484375 14 6 C11.43134571 5.33168497 9.19008007 4.60698344 6.75 3.625 C6.1003125 3.3775 5.450625 3.13 4.78125 2.875 C3.18222963 2.26360986 1.59035444 1.63359041 0 1 C0 0.67 0 0.34 0 0 Z " fill="#BB8F2D" transform="translate(116,249)"/>
<path d="M0 0 C0.66 0.66 1.32 1.32 2 2 C5.08347826 2.16681109 5.08347826 2.16681109 8 2 C7.67 2.99 7.34 3.98 7 5 C4.1875 5.6875 4.1875 5.6875 1 6 C-0.875 4.5625 -0.875 4.5625 -2 3 C-1.34 2.01 -0.68 1.02 0 0 Z " fill="#B1B1B1" transform="translate(190,279)"/>
<path d="M0 0 C-2.1234016 0.83739781 -4.2487728 1.66980283 -6.375 2.5 C-7.55835937 2.9640625 -8.74171875 3.428125 -9.9609375 3.90625 C-13 5 -13 5 -15 5 C-14.67 4.01 -14.34 3.02 -14 2 C-11.6015625 1.015625 -11.6015625 1.015625 -8.625 0.25 C-7.64789063 -0.01296875 -6.67078125 -0.2759375 -5.6640625 -0.546875 C-3 -1 -3 -1 0 0 Z " fill="#B2852C" transform="translate(133,275)"/>
<path d="M0 0 C0.99 0.33 1.98 0.66 3 1 C3 1.66 3 2.32 3 3 C0.21014263 4.97614897 -1.83334677 5.10310462 -5.125 4.75 C-9 4 -9 4 -11 2 C-7.7 2 -4.4 2 -1 2 C-0.67 1.34 -0.34 0.68 0 0 Z " fill="#B78E2D" transform="translate(156,257)"/>
<path d="M0 0 C0.12375 0.639375 0.2475 1.27875 0.375 1.9375 C0.684375 2.9584375 0.684375 2.9584375 1 4 C1.66 4.33 2.32 4.66 3 5 C0.36 5.66 -2.28 6.32 -5 7 C-5 6.01 -5 5.02 -5 4 C-2.5 1.8125 -2.5 1.8125 0 0 Z " fill="#D0962A" transform="translate(94,283)"/>
<path d="M0 0 C-1.125 1.5625 -1.125 1.5625 -3 3 C-6.1875 2.6875 -6.1875 2.6875 -9 2 C-9 1.34 -9 0.68 -9 0 C-5.62182575 -0.84454356 -3.32534757 -1.10844919 0 0 Z " fill="#B3B3B3" transform="translate(297,282)"/>
<path d="M0 0 C4.92127034 -0.16682272 8.50343896 -0.24828052 13 2 C12.67 2.66 12.34 3.32 12 4 C10.5608866 3.71640113 9.12374482 3.42278601 7.6875 3.125 C6.88699219 2.96257812 6.08648437 2.80015625 5.26171875 2.6328125 C3 2 3 2 0 0 Z " fill="#C6932D" transform="translate(70,233)"/>
<path d="M0 0 C0.33 0 0.66 0 1 0 C1.309375 1.11375 1.61875 2.2275 1.9375 3.375 C2.82326483 6.7945155 2.82326483 6.7945155 4 9 C2.35 8.67 0.7 8.34 -1 8 C-1.04241723 5.66705225 -1.04092937 3.33297433 -1 1 C-0.67 0.67 -0.34 0.34 0 0 Z " fill="#E4E4E4" transform="translate(321,275)"/>
<path d="M0 0 C1.65 0 3.3 0 5 0 C5.33 1.65 5.66 3.3 6 5 C5.01 5.495 5.01 5.495 4 6 C3.67 5.34 3.34 4.68 3 4 C2.01 3.67 1.02 3.34 0 3 C0 2.01 0 1.02 0 0 Z " fill="#D5D5D5" transform="translate(245,275)"/>
<path d="M0 0 C1.67542976 0.28604898 3.34385343 0.61781233 5 1 C5.33 2.65 5.66 4.3 6 6 C5.01 6 4.02 6 3 6 C2.67 5.01 2.34 4.02 2 3 C1.01 2.34 0.02 1.68 -1 1 C-0.67 0.67 -0.34 0.34 0 0 Z " fill="#DADADA" transform="translate(192,272)"/>
<path d="M0 0 C5.625 -0.25 5.625 -0.25 9 2 C8.67 2.99 8.34 3.98 8 5 C2.25 3.375 2.25 3.375 0 0 Z " fill="#9E9E9E" transform="translate(243,268)"/>
<path d="M0 0 C5.445 1.485 5.445 1.485 11 3 C10.01 3.66 9.02 4.32 8 5 C5.73828125 4.5390625 5.73828125 4.5390625 3.3125 3.625 C2.50425781 3.32851563 1.69601563 3.03203125 0.86328125 2.7265625 C0.24839844 2.48679687 -0.36648437 2.24703125 -1 2 C-0.67 1.34 -0.34 0.68 0 0 Z " fill="#B88C2B" transform="translate(100,258)"/>
<path d="M0 0 C3.9492568 0.55105909 7.34920174 1.38935371 11 3 C9.02 3.99 9.02 3.99 7 5 C6.01 4.34 5.02 3.68 4 3 C3.01 3.495 3.01 3.495 2 4 C2 3.34 2 2.68 2 2 C1.34 2 0.68 2 0 2 C0 1.34 0 0.68 0 0 Z " fill="#AF8227" transform="translate(81,200)"/>
<path d="M0 0 C2.33944736 0.28730055 4.6739143 0.61936779 7 1 C6.67 1.99 6.34 2.98 6 4 C6 3.34 6 2.68 6 2 C2.97772938 3.00742354 2.11390767 3.79000562 0 6 C-0.33 6 -0.66 6 -1 6 C-1.042721 4.33388095 -1.04063832 2.66617115 -1 1 C-0.67 0.67 -0.34 0.34 0 0 Z " fill="#B5B5B5" transform="translate(201,277)"/>
<path d="M0 0 C3.3125 -0.25 3.3125 -0.25 7 0 C8.9375 2 8.9375 2 10 4 C8.68 4.33 7.36 4.66 6 5 C5.67 3.68 5.34 2.36 5 1 C3.35 1 1.7 1 0 1 C0 0.67 0 0.34 0 0 Z " fill="#999999" transform="translate(308,268)"/>
<path d="M0 0 C1.48199902 0.44909061 2.96055236 0.90956564 4.4375 1.375 C5.26121094 1.63023437 6.08492187 1.88546875 6.93359375 2.1484375 C9 3 9 3 10 5 C8.68 5 7.36 5 6 5 C6 4.34 6 3.68 6 3 C4.02 3 2.04 3 0 3 C0 2.01 0 1.02 0 0 Z " fill="#B6892A" transform="translate(144,222)"/>
<path d="M0 0 C-0.33 1.32 -0.66 2.64 -1 4 C-2.98 4.33 -4.96 4.66 -7 5 C-5.64703851 0.94111554 -4.27479763 0 0 0 Z " fill="#B3B3B3" transform="translate(330,280)"/>
<path d="M0 0 C5.445 1.485 5.445 1.485 11 3 C11 3.33 11 3.66 11 4 C3.57142857 4.28571429 3.57142857 4.28571429 0 2 C0 1.34 0 0.68 0 0 Z " fill="#B1862C" transform="translate(104,208)"/>
<path d="M0 0 C0.33 0 0.66 0 1 0 C1 1.65 1 3.3 1 5 C-1.31 5 -3.62 5 -6 5 C-6.33 5.66 -6.66 6.32 -7 7 C-6.6875 5.0625 -6.6875 5.0625 -6 3 C-5.01 2.67 -4.02 2.34 -3 2 C-3 2.66 -3 3.32 -3 4 C-2.01 4 -1.02 4 0 4 C0 2.68 0 1.36 0 0 Z " fill="#A0A0A0" transform="translate(296,274)"/>
<path d="M0 0 C5.445 1.485 5.445 1.485 11 3 C10.01 3.66 9.02 4.32 8 5 C5.1524013 4.24451463 2.63227284 3.31613642 0 2 C0 1.34 0 0.68 0 0 Z " fill="#B5842B" transform="translate(114,263)"/>
<path d="M0 0 C1.98 0 3.96 0 6 0 C6 1.65 6 3.3 6 5 C5.01 4.67 4.02 4.34 3 4 C3.33 3.34 3.66 2.68 4 2 C2.68 1.34 1.36 0.68 0 0 Z " fill="#DEDEDE" transform="translate(290,273)"/>
<path d="M0 0 C0.99 0 1.98 0 3 0 C2.625 2.4375 2.625 2.4375 2 5 C1.01 5.495 1.01 5.495 0 6 C-0.38218767 4.34385343 -0.71395102 2.67542976 -1 1 C-0.67 0.67 -0.34 0.34 0 0 Z " fill="#D9A12D" transform="translate(51,268)"/>
<path d="" fill="#000000" transform="translate(0,0)"/>
<path d="" fill="#000000" transform="translate(0,0)"/>
<path d="" fill="#000000" transform="translate(0,0)"/>
<path d="" fill="#000000" transform="translate(0,0)"/>
<path d="" fill="#000000" transform="translate(0,0)"/>
<path d="" fill="#000000" transform="translate(0,0)"/>
<path d="" fill="#000000" transform="translate(0,0)"/>
<path d="" fill="#000000" transform="translate(0,0)"/>
<path d="" fill="#000000" transform="translate(0,0)"/>
<path d="" fill="#000000" transform="translate(0,0)"/>
<path d="" fill="#000000" transform="translate(0,0)"/>
<path d="" fill="#000000" transform="translate(0,0)"/>
<path d="" fill="#000000" transform="translate(0,0)"/>
<path d="" fill="#000000" transform="translate(0,0)"/>
<path d="" fill="#000000" transform="translate(0,0)"/>
<path d="" fill="#000000" transform="translate(0,0)"/>
<path d="" fill="#000000" transform="translate(0,0)"/>
<path d="" fill="#000000" transform="translate(0,0)"/>
<path d="" fill="#000000" transform="translate(0,0)"/>
<path d="" fill="#000000" transform="translate(0,0)"/>
<path d="" fill="#000000" transform="translate(0,0)"/>
<path d="" fill="#000000" transform="translate(0,0)"/>
<path d="" fill="#000000" transform="translate(0,0)"/>
<path d="" fill="#000000" transform="translate(0,0)"/>
<path d="" fill="#000000" transform="translate(0,0)"/>
<path d="" fill="#000000" transform="translate(0,0)"/>
<path d="" fill="#000000" transform="translate(0,0)"/>
<path d="" fill="#000000" transform="translate(0,0)"/>
<path d="" fill="#000000" transform="translate(0,0)"/>
<path d="" fill="#000000" transform="translate(0,0)"/>
<path d="" fill="#000000" transform="translate(0,0)"/>
<path d="" fill="#000000" transform="translate(0,0)"/>
<path d="" fill="#000000" transform="translate(0,0)"/>
<path d="" fill="#000000" transform="translate(0,0)"/>
<path d="" fill="#000000" transform="translate(0,0)"/>
<path d="" fill="#000000" transform="translate(0,0)"/>
<path d="" fill="#000000" transform="translate(0,0)"/>
<path d="" fill="#000000" transform="translate(0,0)"/>
<path d="" fill="#000000" transform="translate(0,0)"/>
<path d="" fill="#000000" transform="translate(0,0)"/>
<path d="" fill="#000000" transform="translate(0,0)"/>
<path d="" fill="#000000" transform="translate(0,0)"/>
<path d="" fill="#000000" transform="translate(0,0)"/>
<path d="" fill="#000000" transform="translate(0,0)"/>
<path d="" fill="#000000" transform="translate(0,0)"/>
<path d="" fill="#000000" transform="translate(0,0)"/>
<path d="" fill="#000000" transform="translate(0,0)"/>
<path d="" fill="#000000" transform="translate(0,0)"/>
<path d="" fill="#000000" transform="translate(0,0)"/>
<path d="" fill="#000000" transform="translate(0,0)"/>
<path d="" fill="#000000" transform="translate(0,0)"/>
<path d="" fill="#000000" transform="translate(0,0)"/>
<path d="" fill="#000000" transform="translate(0,0)"/>
<path d="" fill="#000000" transform="translate(0,0)"/>
<path d="" fill="#000000" transform="translate(0,0)"/>
<path d="" fill="#000000" transform="translate(0,0)"/>
<path d="" fill="#000000" transform="translate(0,0)"/>
<path d="" fill="#000000" transform="translate(0,0)"/>
<path d="" fill="#000000" transform="translate(0,0)"/>
<path d="" fill="#000000" transform="translate(0,0)"/>
<path d="" fill="#000000" transform="translate(0,0)"/>
<path d="" fill="#000000" transform="translate(0,0)"/>
<path d="" fill="#000000" transform="translate(0,0)"/>
<path d="" fill="#000000" transform="translate(0,0)"/>
<path d="" fill="#000000" transform="translate(0,0)"/>
<path d="" fill="#000000" transform="translate(0,0)"/>
<path d="" fill="#000000" transform="translate(0,0)"/>
<path d="" fill="#000000" transform="translate(0,0)"/>
<path d="" fill="#000000" transform="translate(0,0)"/>
<path d="" fill="#000000" transform="translate(0,0)"/>
<path d="" fill="#000000" transform="translate(0,0)"/>
<path d="" fill="#000000" transform="translate(0,0)"/>
<path d="" fill="#000000" transform="translate(0,0)"/>
<path d="" fill="#000000" transform="translate(0,0)"/>
<path d="" fill="#000000" transform="translate(0,0)"/>
<path d="" fill="#000000" transform="translate(0,0)"/>
<path d="" fill="#000000" transform="translate(0,0)"/>
<path d="" fill="#000000" transform="translate(0,0)"/>
<path d="" fill="#000000" transform="translate(0,0)"/>
<path d="" fill="#000000" transform="translate(0,0)"/>
<path d="" fill="#000000" transform="translate(0,0)"/>
<path d="" fill="#000000" transform="translate(0,0)"/>
<path d="" fill="#000000" transform="translate(0,0)"/>
<path d="" fill="#000000" transform="translate(0,0)"/>
<path d="" fill="#000000" transform="translate(0,0)"/>
<path d="" fill="#000000" transform="translate(0,0)"/>
<path d="" fill="#000000" transform="translate(0,0)"/>
<path d="" fill="#000000" transform="translate(0,0)"/>
<path d="" fill="#000000" transform="translate(0,0)"/>
<path d="" fill="#000000" transform="translate(0,0)"/>
<path d="" fill="#000000" transform="translate(0,0)"/>
<path d="" fill="#000000" transform="translate(0,0)"/>
</svg>
